<svg width="46" height="46" viewBox="0 0 46 46" fill="none" xmlns="http://www.w3.org/2000/svg">
<rect width="46" height="46" rx="8" fill="#9C4DF4"/>
<path d="M32.71 31.2899L29 27.6099C30.4401 25.8143 31.1375 23.5352 30.9488 21.2412C30.7601 18.9472 29.6997 16.8127 27.9855 15.2765C26.2714 13.7404 24.0338 12.9194 21.7329 12.9824C19.4321 13.0453 17.2427 13.9875 15.6152 15.615C13.9876 17.2426 13.0455 19.4319 12.9825 21.7328C12.9195 24.0337 13.7405 26.2713 15.2767 27.9854C16.8128 29.6996 18.9473 30.76 21.2413 30.9487C23.5353 31.1374 25.8144 30.44 27.61 28.9999L31.29 32.6799C31.383 32.7736 31.4936 32.848 31.6154 32.8988C31.7373 32.9496 31.868 32.9757 32 32.9757C32.132 32.9757 32.2627 32.9496 32.3846 32.8988C32.5065 32.848 32.6171 32.7736 32.71 32.6799C32.8903 32.4934 32.991 32.2442 32.991 31.9849C32.991 31.7256 32.8903 31.4764 32.71 31.2899ZM22 28.9999C20.6156 28.9999 19.2622 28.5894 18.111 27.8202C16.9599 27.051 16.0627 25.9578 15.5329 24.6787C15.0031 23.3996 14.8644 21.9921 15.1345 20.6343C15.4046 19.2764 16.0713 18.0291 17.0503 17.0502C18.0292 16.0712 19.2765 15.4045 20.6344 15.1344C21.9923 14.8643 23.3997 15.0029 24.6788 15.5327C25.9579 16.0626 27.0511 16.9598 27.8203 18.1109C28.5895 19.2621 29 20.6154 29 21.9999C29 23.8564 28.2625 25.6369 26.9498 26.9497C25.637 28.2624 23.8565 28.9999 22 28.9999Z" fill="white"/>
</svg>
