<svg width="14" height="14" viewBox="0 0 14 14" fill="none" xmlns="http://www.w3.org/2000/svg">
<path d="M7.00027 0.45459C5.22269 0.45459 4.9996 0.462363 4.30144 0.494135C3.60465 0.526044 3.12902 0.636363 2.71285 0.798226C2.28237 0.965408 1.9172 1.18904 1.55339 1.553C1.18931 1.91682 0.965679 2.282 0.797957 2.71236C0.635689 3.12868 0.525238 3.60445 0.493876 4.301C0.462649 4.99918 0.454468 5.22241 0.454468 7.00004C0.454468 8.77768 0.462377 9.00009 0.494012 9.69827C0.526057 10.3951 0.636371 10.8707 0.798094 11.2869C0.965407 11.7174 1.18904 12.0826 1.55298 12.4464C1.91665 12.8105 2.28182 13.0347 2.71204 13.2019C3.12848 13.3637 3.60424 13.474 4.3009 13.5059C4.99906 13.5377 5.222 13.5455 6.99945 13.5455C8.77717 13.5455 8.99957 13.5377 9.69773 13.5059C10.3945 13.474 10.8707 13.3637 11.2871 13.2019C11.7175 13.0347 12.0821 12.8105 12.4458 12.4464C12.8099 12.0826 13.0335 11.7174 13.2012 11.287C13.3621 10.8707 13.4726 10.3949 13.5053 9.6984C13.5367 9.00022 13.5448 8.77768 13.5448 7.00004C13.5448 5.22241 13.5367 4.99931 13.5053 4.30113C13.4726 3.60432 13.3621 3.12868 13.2012 2.7125C13.0335 2.282 12.8099 1.91682 12.4458 1.553C12.0817 1.18891 11.7176 0.965271 11.2867 0.798226C10.8695 0.636363 10.3936 0.526044 9.69678 0.494135C8.99862 0.462363 8.77635 0.45459 6.99822 0.45459H7.00027ZM6.41311 1.63413C6.58737 1.63386 6.78182 1.63413 7.00027 1.63413C8.74785 1.63413 8.95498 1.64041 9.6451 1.67177C10.2833 1.70095 10.6296 1.80759 10.8603 1.89718C11.1658 2.01582 11.3835 2.15763 11.6125 2.38673C11.8416 2.61582 11.9834 2.834 12.1023 3.13945C12.1919 3.36991 12.2987 3.71627 12.3277 4.35445C12.3591 5.04445 12.3659 5.25172 12.3659 6.99854C12.3659 8.74536 12.3591 8.95263 12.3277 9.64263C12.2985 10.2808 12.1919 10.6272 12.1023 10.8576C11.9837 11.1631 11.8416 11.3806 11.6125 11.6095C11.3834 11.8386 11.1659 11.9804 10.8603 12.0991C10.6299 12.1891 10.2833 12.2954 9.6451 12.3246C8.95512 12.356 8.74785 12.3628 7.00027 12.3628C5.25255 12.3628 5.04542 12.356 4.35544 12.3246C3.71728 12.2952 3.37092 12.1885 3.14007 12.0989C2.83462 11.9803 2.61645 11.8385 2.38736 11.6094C2.15828 11.3803 2.01647 11.1627 1.89756 10.8571C1.80797 10.6266 1.7012 10.2803 1.67216 9.64209C1.6408 8.95209 1.63452 8.74481 1.63452 6.9969C1.63452 5.249 1.6408 5.04282 1.67216 4.35282C1.70134 3.71463 1.80797 3.36827 1.89756 3.13754C2.01619 2.83209 2.15828 2.61391 2.38736 2.38482C2.61645 2.15573 2.83462 2.01391 3.14007 1.895C3.37079 1.805 3.71728 1.69863 4.35544 1.66932C4.95924 1.64204 5.19323 1.63386 6.41311 1.6325V1.63413ZM10.4941 2.72095C10.0604 2.72095 9.70864 3.07236 9.70864 3.50613C9.70864 3.93977 10.0604 4.29159 10.4941 4.29159C10.9277 4.29159 11.2795 3.93977 11.2795 3.50613C11.2795 3.0725 10.9277 2.72068 10.4941 2.72068V2.72095ZM7.00027 3.63868C5.14401 3.63868 3.63901 5.14372 3.63901 7.00004C3.63901 8.85636 5.14401 10.3607 7.00027 10.3607C8.85653 10.3607 10.361 8.85636 10.361 7.00004C10.361 5.14372 8.85639 3.63868 7.00013 3.63868H7.00027ZM7.00027 4.81822C8.20514 4.81822 9.18202 5.795 9.18202 7.00004C9.18202 8.20495 8.20514 9.18186 7.00027 9.18186C5.79526 9.18186 4.81852 8.20495 4.81852 7.00004C4.81852 5.795 5.79526 4.81822 7.00027 4.81822Z" fill="white"/>
</svg>
