<svg width="71" height="70" viewBox="0 0 71 70" fill="none" xmlns="http://www.w3.org/2000/svg">
<rect x="0.333984" width="70" height="70" rx="10" fill="#F8F2FF"/>
<path d="M36.6725 28.236C35.9284 28.9785 34.7225 28.9785 33.9784 28.236C33.2345 27.4935 33.2345 26.2896 33.9784 25.5471C34.7225 24.8046 35.9284 24.8046 36.6725 25.5471C37.4164 26.2896 37.4164 27.4935 36.6725 28.236Z" fill="#9C4DF4"/>
<path d="M39.275 31.1168C39.0429 31.1168 38.8108 31.0283 38.6341 30.8509C38.2807 30.497 38.2814 29.9237 38.6352 29.5705C39.3523 28.8548 39.7471 27.9033 39.7471 26.8915C39.7471 25.8796 39.3523 24.9281 38.6352 24.2124C38.2814 23.859 38.2807 23.2859 38.6341 22.9318C38.9873 22.578 39.5606 22.5773 39.9145 22.9307C40.9744 23.9886 41.5581 25.395 41.5581 26.8915C41.5581 28.3877 40.9744 29.7944 39.9145 30.8523C39.7378 31.0287 39.5064 31.1168 39.275 31.1168Z" fill="#9C4DF4"/>
<path d="M41.323 33.7827C41.0909 33.7827 40.8588 33.6941 40.6821 33.5169C40.3287 33.1628 40.3294 32.5897 40.6833 32.2363C42.1138 30.8086 42.9018 28.9104 42.9018 26.8915C42.9018 24.8725 42.1138 22.9744 40.6833 21.5466C40.3294 21.1932 40.3287 20.6201 40.6821 20.266C41.0355 19.9122 41.6086 19.9115 41.9625 20.2649C43.7359 22.0348 44.7127 24.3882 44.7125 26.8915C44.7125 29.3948 43.7359 31.7483 41.9625 33.5183C41.7858 33.6945 41.5544 33.7827 41.323 33.7827Z" fill="#9C4DF4"/>
<path d="M31.3714 31.1164C31.14 31.1164 30.9086 31.0283 30.7317 30.8519C29.6717 29.794 29.0881 28.3873 29.0881 26.8911C29.0881 25.3946 29.6717 23.9882 30.7317 22.9303C31.0855 22.5769 31.6589 22.5773 32.012 22.9314C32.3654 23.2853 32.3648 23.8586 32.0109 24.212C31.2938 24.9277 30.899 25.8792 30.899 26.8911C30.899 27.9029 31.2938 28.8544 32.0109 29.5701C32.3648 29.9233 32.3654 30.4966 32.012 30.8505C31.8353 31.0276 31.6033 31.1164 31.3714 31.1164Z" fill="#9C4DF4"/>
<path d="M29.3234 33.7835C29.0918 33.7835 28.8604 33.6954 28.6837 33.5189C26.9103 31.749 25.9337 29.3956 25.9337 26.8923C25.9337 24.3888 26.9103 22.0355 28.6837 20.2655C29.0375 19.9123 29.6109 19.9128 29.964 20.2669C30.3174 20.6207 30.3167 21.1939 29.9629 21.5472C28.5324 22.975 27.7443 24.8731 27.7443 26.8921C27.7443 28.9111 28.5324 30.8094 29.9629 32.2372C30.3167 32.5906 30.3174 33.1637 29.964 33.5178C29.7873 33.6949 29.5553 33.7835 29.3234 33.7835Z" fill="#9C4DF4"/>
<path d="M47.2567 35.3479H23.3896C22.2198 35.3479 21.2715 36.2962 21.2715 37.4657V47.8819C21.2715 49.0517 22.2198 50 23.3896 50H47.2564C48.4263 50 49.3745 49.0517 49.3745 47.8819V37.4657C49.3745 36.2962 48.4263 35.3479 47.2567 35.3479ZM28.2366 47.2825H24.9007C24.4008 47.2825 23.9955 46.8771 23.9955 46.377V38.9709C23.9955 38.471 24.4008 38.0654 24.9007 38.0654C25.4008 38.0654 25.8061 38.4708 25.8061 38.9709V45.4715H28.2366C28.7367 45.4715 29.1421 45.8769 29.1421 46.377C29.1421 46.8771 28.7367 47.2825 28.2366 47.2825ZM31.9473 46.377C31.9473 46.8771 31.5419 47.2825 31.0418 47.2825C30.5417 47.2825 30.1363 46.8771 30.1363 46.377V38.9709C30.1363 38.471 30.5417 38.0654 31.0418 38.0654C31.5419 38.0654 31.9473 38.4708 31.9473 38.9709V46.377ZM39.5653 39.2327L37.3294 46.6386C37.3292 46.6393 37.3289 46.64 37.3287 46.6407C37.0859 47.4695 35.8479 47.4491 35.5965 46.6407C35.5963 46.64 35.5961 46.6393 35.5959 46.6386L33.3599 39.2327C33.2155 38.7539 33.4863 38.2487 33.9651 38.1041C34.4434 37.9597 34.949 38.2304 35.0935 38.7093L36.4626 43.2441L37.8318 38.7093C37.9764 38.2304 38.4816 37.9594 38.9604 38.1041C39.439 38.2487 39.71 38.7539 39.5653 39.2327ZM45.1356 41.3022C45.6357 41.3022 46.0411 41.7076 46.0411 42.2077C46.0411 42.7076 45.6357 43.1132 45.1356 43.1132H42.5662V45.4715H45.6234C46.1235 45.4715 46.5288 45.8769 46.5288 46.377C46.5288 46.8771 46.1235 47.2825 45.6234 47.2825H41.6608C41.1606 47.2825 40.7553 46.8771 40.7553 46.377V38.9709C40.7553 38.471 41.1606 38.0654 41.6608 38.0654H45.7454C46.2452 38.0654 46.6508 38.4708 46.6508 38.9709C46.6508 39.471 46.2452 39.8763 45.7454 39.8763H42.566V41.3022H45.1356Z" fill="#9C4DF4"/>
</svg>
