<svg width="128" height="133" viewBox="0 0 128 133" fill="none" xmlns="http://www.w3.org/2000/svg">
<path d="M0.20575 8.822V7.464H2.50175V5.14H3.90175V7.464H6.19775V8.822H3.90175V11.23H2.50175V8.822H0.20575Z" fill="#9C4DF4"/>
<path d="M13.7169 8.822V7.464H16.0129V5.14H17.4129V7.464H19.7089V8.822H17.4129V11.23H16.0129V8.822H13.7169Z" fill="#9C4DF4"/>
<path d="M27.228 8.822V7.464H29.524V5.14H30.924V7.464H33.22V8.822H30.924V11.23H29.524V8.822H27.228Z" fill="#9C4DF4"/>
<path d="M40.7391 8.822V7.464H43.0351V5.14H44.4351V7.464H46.7311V8.822H44.4351V11.23H43.0351V8.822H40.7391Z" fill="#9C4DF4"/>
<path d="M54.2502 8.822V7.464H56.5462V5.14H57.9462V7.464H60.2422V8.822H57.9462V11.23H56.5462V8.822H54.2502Z" fill="#9C4DF4"/>
<path d="M67.7613 8.822V7.464H70.0573V5.14H71.4573V7.464H73.7533V8.822H71.4573V11.23H70.0573V8.822H67.7613Z" fill="#9C4DF4"/>
<path d="M81.2724 8.822V7.464H83.5684V5.14H84.9684V7.464H87.2644V8.822H84.9684V11.23H83.5684V8.822H81.2724Z" fill="#9C4DF4"/>
<path d="M94.7835 8.822V7.464H97.0795V5.14H98.4795V7.464H100.776V8.822H98.4795V11.23H97.0795V8.822H94.7835Z" fill="#9C4DF4"/>
<path d="M108.295 8.822V7.464H110.591V5.14H111.991V7.464H114.287V8.822H111.991V11.23H110.591V8.822H108.295Z" fill="#9C4DF4"/>
<path d="M121.806 8.822V7.464H124.102V5.14H125.502V7.464H127.798V8.822H125.502V11.23H124.102V8.822H121.806Z" fill="#9C4DF4"/>
<path d="M0.20575 22.3332V20.9752H2.50175V18.6512H3.90175V20.9752H6.19775V22.3332H3.90175V24.7412H2.50175V22.3332H0.20575Z" fill="#9C4DF4"/>
<path d="M13.7169 22.3332V20.9752H16.0129V18.6512H17.4129V20.9752H19.7089V22.3332H17.4129V24.7412H16.0129V22.3332H13.7169Z" fill="#9C4DF4"/>
<path d="M27.228 22.3332V20.9752H29.524V18.6512H30.924V20.9752H33.22V22.3332H30.924V24.7412H29.524V22.3332H27.228Z" fill="#9C4DF4"/>
<path d="M40.7391 22.3332V20.9752H43.0351V18.6512H44.4351V20.9752H46.7311V22.3332H44.4351V24.7412H43.0351V22.3332H40.7391Z" fill="#9C4DF4"/>
<path d="M54.2502 22.3332V20.9752H56.5462V18.6512H57.9462V20.9752H60.2422V22.3332H57.9462V24.7412H56.5462V22.3332H54.2502Z" fill="#9C4DF4"/>
<path d="M67.7613 22.3332V20.9752H70.0573V18.6512H71.4573V20.9752H73.7533V22.3332H71.4573V24.7412H70.0573V22.3332H67.7613Z" fill="#9C4DF4"/>
<path d="M81.2724 22.3332V20.9752H83.5684V18.6512H84.9684V20.9752H87.2644V22.3332H84.9684V24.7412H83.5684V22.3332H81.2724Z" fill="#9C4DF4"/>
<path d="M94.7835 22.3332V20.9752H97.0795V18.6512H98.4795V20.9752H100.776V22.3332H98.4795V24.7412H97.0795V22.3332H94.7835Z" fill="#9C4DF4"/>
<path d="M108.295 22.3332V20.9752H110.591V18.6512H111.991V20.9752H114.287V22.3332H111.991V24.7412H110.591V22.3332H108.295Z" fill="#9C4DF4"/>
<path d="M121.806 22.3332V20.9752H124.102V18.6512H125.502V20.9752H127.798V22.3332H125.502V24.7412H124.102V22.3332H121.806Z" fill="#9C4DF4"/>
<path d="M0.20575 35.8445V34.4865H2.50175V32.1625H3.90175V34.4865H6.19775V35.8445H3.90175V38.2525H2.50175V35.8445H0.20575Z" fill="#9C4DF4"/>
<path d="M13.7169 35.8445V34.4865H16.0129V32.1625H17.4129V34.4865H19.7089V35.8445H17.4129V38.2525H16.0129V35.8445H13.7169Z" fill="#9C4DF4"/>
<path d="M27.228 35.8445V34.4865H29.524V32.1625H30.924V34.4865H33.22V35.8445H30.924V38.2525H29.524V35.8445H27.228Z" fill="#9C4DF4"/>
<path d="M40.7391 35.8445V34.4865H43.0351V32.1625H44.4351V34.4865H46.7311V35.8445H44.4351V38.2525H43.0351V35.8445H40.7391Z" fill="#9C4DF4"/>
<path d="M54.2502 35.8445V34.4865H56.5462V32.1625H57.9462V34.4865H60.2422V35.8445H57.9462V38.2525H56.5462V35.8445H54.2502Z" fill="#9C4DF4"/>
<path d="M67.7613 35.8445V34.4865H70.0573V32.1625H71.4573V34.4865H73.7533V35.8445H71.4573V38.2525H70.0573V35.8445H67.7613Z" fill="#9C4DF4"/>
<path d="M81.2724 35.8445V34.4865H83.5684V32.1625H84.9684V34.4865H87.2644V35.8445H84.9684V38.2525H83.5684V35.8445H81.2724Z" fill="#9C4DF4"/>
<path d="M94.7835 35.8445V34.4865H97.0795V32.1625H98.4795V34.4865H100.776V35.8445H98.4795V38.2525H97.0795V35.8445H94.7835Z" fill="#9C4DF4"/>
<path d="M108.295 35.8445V34.4865H110.591V32.1625H111.991V34.4865H114.287V35.8445H111.991V38.2525H110.591V35.8445H108.295Z" fill="#9C4DF4"/>
<path d="M121.806 35.8445V34.4865H124.102V32.1625H125.502V34.4865H127.798V35.8445H125.502V38.2525H124.102V35.8445H121.806Z" fill="#9C4DF4"/>
<path d="M0.20575 49.3552V47.9972H2.50175V45.6732H3.90175V47.9972H6.19775V49.3552H3.90175V51.7632H2.50175V49.3552H0.20575Z" fill="#9C4DF4"/>
<path d="M13.7169 49.3552V47.9972H16.0129V45.6732H17.4129V47.9972H19.7089V49.3552H17.4129V51.7632H16.0129V49.3552H13.7169Z" fill="#9C4DF4"/>
<path d="M27.228 49.3552V47.9972H29.524V45.6732H30.924V47.9972H33.22V49.3552H30.924V51.7632H29.524V49.3552H27.228Z" fill="#9C4DF4"/>
<path d="M40.7391 49.3552V47.9972H43.0351V45.6732H44.4351V47.9972H46.7311V49.3552H44.4351V51.7632H43.0351V49.3552H40.7391Z" fill="#9C4DF4"/>
<path d="M54.2502 49.3552V47.9972H56.5462V45.6732H57.9462V47.9972H60.2422V49.3552H57.9462V51.7632H56.5462V49.3552H54.2502Z" fill="#9C4DF4"/>
<path d="M67.7613 49.3552V47.9972H70.0573V45.6732H71.4573V47.9972H73.7533V49.3552H71.4573V51.7632H70.0573V49.3552H67.7613Z" fill="#9C4DF4"/>
<path d="M81.2724 49.3552V47.9972H83.5684V45.6732H84.9684V47.9972H87.2644V49.3552H84.9684V51.7632H83.5684V49.3552H81.2724Z" fill="#9C4DF4"/>
<path d="M94.7835 49.3552V47.9972H97.0795V45.6732H98.4795V47.9972H100.776V49.3552H98.4795V51.7632H97.0795V49.3552H94.7835Z" fill="#9C4DF4"/>
<path d="M108.295 49.3552V47.9972H110.591V45.6732H111.991V47.9972H114.287V49.3552H111.991V51.7632H110.591V49.3552H108.295Z" fill="#9C4DF4"/>
<path d="M121.806 49.3552V47.9972H124.102V45.6732H125.502V47.9972H127.798V49.3552H125.502V51.7632H124.102V49.3552H121.806Z" fill="#9C4DF4"/>
<path d="M0.20575 62.8664V61.5084H2.50175V59.1844H3.90175V61.5084H6.19775V62.8664H3.90175V65.2744H2.50175V62.8664H0.20575Z" fill="#9C4DF4"/>
<path d="M13.7169 62.8664V61.5084H16.0129V59.1844H17.4129V61.5084H19.7089V62.8664H17.4129V65.2744H16.0129V62.8664H13.7169Z" fill="#9C4DF4"/>
<path d="M27.228 62.8664V61.5084H29.524V59.1844H30.924V61.5084H33.22V62.8664H30.924V65.2744H29.524V62.8664H27.228Z" fill="#9C4DF4"/>
<path d="M40.7391 62.8664V61.5084H43.0351V59.1844H44.4351V61.5084H46.7311V62.8664H44.4351V65.2744H43.0351V62.8664H40.7391Z" fill="#9C4DF4"/>
<path d="M54.2502 62.8664V61.5084H56.5462V59.1844H57.9462V61.5084H60.2422V62.8664H57.9462V65.2744H56.5462V62.8664H54.2502Z" fill="#9C4DF4"/>
<path d="M67.7613 62.8664V61.5084H70.0573V59.1844H71.4573V61.5084H73.7533V62.8664H71.4573V65.2744H70.0573V62.8664H67.7613Z" fill="#9C4DF4"/>
<path d="M81.2724 62.8664V61.5084H83.5684V59.1844H84.9684V61.5084H87.2644V62.8664H84.9684V65.2744H83.5684V62.8664H81.2724Z" fill="#9C4DF4"/>
<path d="M94.7835 62.8664V61.5084H97.0795V59.1844H98.4795V61.5084H100.776V62.8664H98.4795V65.2744H97.0795V62.8664H94.7835Z" fill="#9C4DF4"/>
<path d="M108.295 62.8664V61.5084H110.591V59.1844H111.991V61.5084H114.287V62.8664H111.991V65.2744H110.591V62.8664H108.295Z" fill="#9C4DF4"/>
<path d="M121.806 62.8664V61.5084H124.102V59.1844H125.502V61.5084H127.798V62.8664H125.502V65.2744H124.102V62.8664H121.806Z" fill="#9C4DF4"/>
<path d="M0.20575 76.3777V75.0197H2.50175V72.6957H3.90175V75.0197H6.19775V76.3777H3.90175V78.7857H2.50175V76.3777H0.20575Z" fill="#9C4DF4"/>
<path d="M13.7169 76.3777V75.0197H16.0129V72.6957H17.4129V75.0197H19.7089V76.3777H17.4129V78.7857H16.0129V76.3777H13.7169Z" fill="#9C4DF4"/>
<path d="M27.228 76.3777V75.0197H29.524V72.6957H30.924V75.0197H33.22V76.3777H30.924V78.7857H29.524V76.3777H27.228Z" fill="#9C4DF4"/>
<path d="M40.7391 76.3777V75.0197H43.0351V72.6957H44.4351V75.0197H46.7311V76.3777H44.4351V78.7857H43.0351V76.3777H40.7391Z" fill="#9C4DF4"/>
<path d="M54.2502 76.3777V75.0197H56.5462V72.6957H57.9462V75.0197H60.2422V76.3777H57.9462V78.7857H56.5462V76.3777H54.2502Z" fill="#9C4DF4"/>
<path d="M67.7613 76.3777V75.0197H70.0573V72.6957H71.4573V75.0197H73.7533V76.3777H71.4573V78.7857H70.0573V76.3777H67.7613Z" fill="#9C4DF4"/>
<path d="M81.2724 76.3777V75.0197H83.5684V72.6957H84.9684V75.0197H87.2644V76.3777H84.9684V78.7857H83.5684V76.3777H81.2724Z" fill="#9C4DF4"/>
<path d="M94.7835 76.3777V75.0197H97.0795V72.6957H98.4795V75.0197H100.776V76.3777H98.4795V78.7857H97.0795V76.3777H94.7835Z" fill="#9C4DF4"/>
<path d="M108.295 76.3777V75.0197H110.591V72.6957H111.991V75.0197H114.287V76.3777H111.991V78.7857H110.591V76.3777H108.295Z" fill="#9C4DF4"/>
<path d="M121.806 76.3777V75.0197H124.102V72.6957H125.502V75.0197H127.798V76.3777H125.502V78.7857H124.102V76.3777H121.806Z" fill="#9C4DF4"/>
<path d="M0.20575 89.8889V88.5309H2.50175V86.2069H3.90175V88.5309H6.19775V89.8889H3.90175V92.2969H2.50175V89.8889H0.20575Z" fill="#9C4DF4"/>
<path d="M13.7169 89.8889V88.5309H16.0129V86.2069H17.4129V88.5309H19.7089V89.8889H17.4129V92.2969H16.0129V89.8889H13.7169Z" fill="#9C4DF4"/>
<path d="M27.228 89.8889V88.5309H29.524V86.2069H30.924V88.5309H33.22V89.8889H30.924V92.2969H29.524V89.8889H27.228Z" fill="#9C4DF4"/>
<path d="M40.7391 89.8889V88.5309H43.0351V86.2069H44.4351V88.5309H46.7311V89.8889H44.4351V92.2969H43.0351V89.8889H40.7391Z" fill="#9C4DF4"/>
<path d="M54.2502 89.8889V88.5309H56.5462V86.2069H57.9462V88.5309H60.2422V89.8889H57.9462V92.2969H56.5462V89.8889H54.2502Z" fill="#9C4DF4"/>
<path d="M67.7613 89.8889V88.5309H70.0573V86.2069H71.4573V88.5309H73.7533V89.8889H71.4573V92.2969H70.0573V89.8889H67.7613Z" fill="#9C4DF4"/>
<path d="M81.2724 89.8889V88.5309H83.5684V86.2069H84.9684V88.5309H87.2644V89.8889H84.9684V92.2969H83.5684V89.8889H81.2724Z" fill="#9C4DF4"/>
<path d="M94.7835 89.8889V88.5309H97.0795V86.2069H98.4795V88.5309H100.776V89.8889H98.4795V92.2969H97.0795V89.8889H94.7835Z" fill="#9C4DF4"/>
<path d="M108.295 89.8889V88.5309H110.591V86.2069H111.991V88.5309H114.287V89.8889H111.991V92.2969H110.591V89.8889H108.295Z" fill="#9C4DF4"/>
<path d="M121.806 89.8889V88.5309H124.102V86.2069H125.502V88.5309H127.798V89.8889H125.502V92.2969H124.102V89.8889H121.806Z" fill="#9C4DF4"/>
<path d="M0.20575 103.4V102.042H2.50175V99.7176H3.90175V102.042H6.19775V103.4H3.90175V105.808H2.50175V103.4H0.20575Z" fill="#9C4DF4"/>
<path d="M13.7169 103.4V102.042H16.0129V99.7176H17.4129V102.042H19.7089V103.4H17.4129V105.808H16.0129V103.4H13.7169Z" fill="#9C4DF4"/>
<path d="M27.228 103.4V102.042H29.524V99.7176H30.924V102.042H33.22V103.4H30.924V105.808H29.524V103.4H27.228Z" fill="#9C4DF4"/>
<path d="M40.7391 103.4V102.042H43.0351V99.7176H44.4351V102.042H46.7311V103.4H44.4351V105.808H43.0351V103.4H40.7391Z" fill="#9C4DF4"/>
<path d="M54.2502 103.4V102.042H56.5462V99.7176H57.9462V102.042H60.2422V103.4H57.9462V105.808H56.5462V103.4H54.2502Z" fill="#9C4DF4"/>
<path d="M67.7613 103.4V102.042H70.0573V99.7176H71.4573V102.042H73.7533V103.4H71.4573V105.808H70.0573V103.4H67.7613Z" fill="#9C4DF4"/>
<path d="M81.2724 103.4V102.042H83.5684V99.7176H84.9684V102.042H87.2644V103.4H84.9684V105.808H83.5684V103.4H81.2724Z" fill="#9C4DF4"/>
<path d="M94.7835 103.4V102.042H97.0795V99.7176H98.4795V102.042H100.776V103.4H98.4795V105.808H97.0795V103.4H94.7835Z" fill="#9C4DF4"/>
<path d="M108.295 103.4V102.042H110.591V99.7176H111.991V102.042H114.287V103.4H111.991V105.808H110.591V103.4H108.295Z" fill="#9C4DF4"/>
<path d="M121.806 103.4V102.042H124.102V99.7176H125.502V102.042H127.798V103.4H125.502V105.808H124.102V103.4H121.806Z" fill="#9C4DF4"/>
<path d="M0.20575 116.911V115.553H2.50175V113.229H3.90175V115.553H6.19775V116.911H3.90175V119.319H2.50175V116.911H0.20575Z" fill="#9C4DF4"/>
<path d="M13.7169 116.911V115.553H16.0129V113.229H17.4129V115.553H19.7089V116.911H17.4129V119.319H16.0129V116.911H13.7169Z" fill="#9C4DF4"/>
<path d="M27.228 116.911V115.553H29.524V113.229H30.924V115.553H33.22V116.911H30.924V119.319H29.524V116.911H27.228Z" fill="#9C4DF4"/>
<path d="M40.7391 116.911V115.553H43.0351V113.229H44.4351V115.553H46.7311V116.911H44.4351V119.319H43.0351V116.911H40.7391Z" fill="#9C4DF4"/>
<path d="M54.2502 116.911V115.553H56.5462V113.229H57.9462V115.553H60.2422V116.911H57.9462V119.319H56.5462V116.911H54.2502Z" fill="#9C4DF4"/>
<path d="M67.7613 116.911V115.553H70.0573V113.229H71.4573V115.553H73.7533V116.911H71.4573V119.319H70.0573V116.911H67.7613Z" fill="#9C4DF4"/>
<path d="M81.2724 116.911V115.553H83.5684V113.229H84.9684V115.553H87.2644V116.911H84.9684V119.319H83.5684V116.911H81.2724Z" fill="#9C4DF4"/>
<path d="M94.7835 116.911V115.553H97.0795V113.229H98.4795V115.553H100.776V116.911H98.4795V119.319H97.0795V116.911H94.7835Z" fill="#9C4DF4"/>
<path d="M108.295 116.911V115.553H110.591V113.229H111.991V115.553H114.287V116.911H111.991V119.319H110.591V116.911H108.295Z" fill="#9C4DF4"/>
<path d="M121.806 116.911V115.553H124.102V113.229H125.502V115.553H127.798V116.911H125.502V119.319H124.102V116.911H121.806Z" fill="#9C4DF4"/>
<path d="M0.20575 130.422V129.064H2.50175V126.74H3.90175V129.064H6.19775V130.422H3.90175V132.83H2.50175V130.422H0.20575Z" fill="#9C4DF4"/>
<path d="M13.7169 130.422V129.064H16.0129V126.74H17.4129V129.064H19.7089V130.422H17.4129V132.83H16.0129V130.422H13.7169Z" fill="#9C4DF4"/>
<path d="M27.228 130.422V129.064H29.524V126.74H30.924V129.064H33.22V130.422H30.924V132.83H29.524V130.422H27.228Z" fill="#9C4DF4"/>
<path d="M40.7391 130.422V129.064H43.0351V126.74H44.4351V129.064H46.7311V130.422H44.4351V132.83H43.0351V130.422H40.7391Z" fill="#9C4DF4"/>
<path d="M54.2502 130.422V129.064H56.5462V126.74H57.9462V129.064H60.2422V130.422H57.9462V132.83H56.5462V130.422H54.2502Z" fill="#9C4DF4"/>
<path d="M67.7613 130.422V129.064H70.0573V126.74H71.4573V129.064H73.7533V130.422H71.4573V132.83H70.0573V130.422H67.7613Z" fill="#9C4DF4"/>
<path d="M81.2724 130.422V129.064H83.5684V126.74H84.9684V129.064H87.2644V130.422H84.9684V132.83H83.5684V130.422H81.2724Z" fill="#9C4DF4"/>
<path d="M94.7835 130.422V129.064H97.0795V126.74H98.4795V129.064H100.776V130.422H98.4795V132.83H97.0795V130.422H94.7835Z" fill="#9C4DF4"/>
<path d="M108.295 130.422V129.064H110.591V126.74H111.991V129.064H114.287V130.422H111.991V132.83H110.591V130.422H108.295Z" fill="#9C4DF4"/>
<path d="M121.806 130.422V129.064H124.102V126.74H125.502V129.064H127.798V130.422H125.502V132.83H124.102V130.422H121.806Z" fill="#9C4DF4"/>
</svg>
