<svg width="16" height="16" viewBox="0 0 16 16" fill="none" xmlns="http://www.w3.org/2000/svg">
<path d="M10.7824 8.53247C11.5177 7.95397 12.0544 7.16066 12.3178 6.26293C12.5812 5.36519 12.5583 4.40767 12.2522 3.52357C11.9461 2.63947 11.3721 1.87277 10.6099 1.33011C9.84779 0.787461 8.93546 0.49585 7.99988 0.49585C7.06429 0.49585 6.15196 0.787461 5.38982 1.33011C4.62768 1.87277 4.05363 2.63947 3.74753 3.52357C3.44144 4.40767 3.41851 5.36519 3.68195 6.26293C3.94538 7.16066 4.48208 7.95397 5.21738 8.53247C3.95743 9.03725 2.85809 9.87448 2.03654 10.9549C1.215 12.0353 0.702048 13.3185 0.552375 14.6675C0.541541 14.766 0.550213 14.8656 0.577895 14.9608C0.605576 15.0559 0.651726 15.1447 0.713709 15.222C0.83889 15.3781 1.02096 15.4781 1.21988 15.5C1.41879 15.5219 1.61825 15.4638 1.77437 15.3386C1.93049 15.2135 2.0305 15.0314 2.05238 14.8325C2.21706 13.3664 2.91614 12.0123 4.01604 11.0291C5.11594 10.0458 6.53955 9.50224 8.01488 9.50224C9.4902 9.50224 10.9138 10.0458 12.0137 11.0291C13.1136 12.0123 13.8127 13.3664 13.9774 14.8325C13.9978 15.0168 14.0857 15.187 14.2242 15.3102C14.3627 15.4335 14.542 15.5011 14.7274 15.5H14.8099C15.0065 15.4773 15.1862 15.3779 15.3098 15.2234C15.4334 15.0689 15.491 14.8717 15.4699 14.675C15.3195 13.3221 14.8038 12.0357 13.978 10.9536C13.1522 9.87154 12.0476 9.03458 10.7824 8.53247ZM7.99988 7.99997C7.40653 7.99997 6.82651 7.82402 6.33317 7.49438C5.83982 7.16474 5.4553 6.6962 5.22824 6.14802C5.00117 5.59984 4.94176 4.99664 5.05752 4.4147C5.17327 3.83276 5.459 3.29821 5.87855 2.87865C6.29811 2.45909 6.83266 2.17337 7.41461 2.05762C7.99655 1.94186 8.59975 2.00127 9.14793 2.22833C9.69611 2.4554 10.1646 2.83991 10.4943 3.33326C10.8239 3.82661 10.9999 4.40663 10.9999 4.99997C10.9999 5.79562 10.6838 6.55868 10.1212 7.12129C9.55859 7.6839 8.79553 7.99997 7.99988 7.99997Z" fill="#5D5A6F"/>
</svg>
